<?xml version="1.0" encoding="UTF-8" standalone="no"?><svg xmlns="http://www.w3.org/2000/svg" xmlns:xlink="http://www.w3.org/1999/xlink" contentScriptType="application/ecmascript" contentStyleType="text/css" height="499px" preserveAspectRatio="none" style="width:331px;height:499px;" version="1.1" viewBox="0 0 331 499" width="331px" zoomAndPan="magnify"><defs><filter height="300%" id="f17bmnrjmcyori" width="300%" x="-1" y="-1"><feGaussianBlur result="blurOut" stdDeviation="2.0"/><feColorMatrix in="blurOut" result="blurOut2" type="matrix" values="0 0 0 0 0 0 0 0 0 0 0 0 0 0 0 0 0 0 .4 0"/><feOffset dx="4.0" dy="4.0" in="blurOut2" result="blurOut3"/><feBlend in="SourceGraphic" in2="blurOut3" mode="normal"/></filter></defs><g><!--class Iterable--><rect fill="#FEFECE" filter="url(#f17bmnrjmcyori)" height="48" id="Iterable" style="stroke: #A80036; stroke-width: 1.5;" width="92" x="91" y="8"/><ellipse cx="106" cy="24" fill="#B4A7E5" rx="11" ry="11" style="stroke: #A80036; stroke-width: 1.0;"/><path d="M102.1719,17.4219 L109.7344,17.4219 L109.7344,19.5156 L107.1406,19.5156 L107.1406,28.4063 L109.7344,28.4063 L109.7344,30.5 L102.1719,30.5 L102.1719,28.4063 L104.7656,28.4063 L104.7656,19.5156 L102.1719,19.5156 L102.1719,17.4219 Z "/><text fill="#000000" font-family="sans-serif" font-size="12" font-style="italic" lengthAdjust="spacingAndGlyphs" textLength="49" x="120" y="28.1543">Iterable</text><rect fill="#FFFFFF" height="15.9688" style="stroke: #000000; stroke-width: 1.0; stroke-dasharray: 2.0,2.0;" width="9" x="177" y="5"/><text fill="#000000" font-family="sans-serif" font-size="12" font-style="italic" lengthAdjust="spacingAndGlyphs" textLength="7" x="178" y="17.1387">T</text><line style="stroke: #A80036; stroke-width: 1.5;" x1="92" x2="182" y1="40" y2="40"/><line style="stroke: #A80036; stroke-width: 1.5;" x1="92" x2="182" y1="48" y2="48"/><!--class Collection--><rect fill="#FEFECE" filter="url(#f17bmnrjmcyori)" height="48" id="Collection" style="stroke: #A80036; stroke-width: 1.5;" width="104" x="85" y="116"/><ellipse cx="100" cy="132" fill="#B4A7E5" rx="11" ry="11" style="stroke: #A80036; stroke-width: 1.0;"/><path d="M96.1719,125.4219 L103.7344,125.4219 L103.7344,127.5156 L101.1406,127.5156 L101.1406,136.4063 L103.7344,136.4063 L103.7344,138.5 L96.1719,138.5 L96.1719,136.4063 L98.7656,136.4063 L98.7656,127.5156 L96.1719,127.5156 L96.1719,125.4219 Z "/><text fill="#000000" font-family="sans-serif" font-size="12" font-style="italic" lengthAdjust="spacingAndGlyphs" textLength="61" x="114" y="136.1543">Collection</text><rect fill="#FFFFFF" height="15.9688" style="stroke: #000000; stroke-width: 1.0; stroke-dasharray: 2.0,2.0;" width="9" x="183" y="113"/><text fill="#000000" font-family="sans-serif" font-size="12" font-style="italic" lengthAdjust="spacingAndGlyphs" textLength="7" x="184" y="125.1387">T</text><line style="stroke: #A80036; stroke-width: 1.5;" x1="86" x2="188" y1="148" y2="148"/><line style="stroke: #A80036; stroke-width: 1.5;" x1="86" x2="188" y1="156" y2="156"/><!--class List--><rect fill="#FEFECE" filter="url(#f17bmnrjmcyori)" height="48" id="List" style="stroke: #A80036; stroke-width: 1.5;" width="64" x="6" y="224"/><ellipse cx="21" cy="240" fill="#B4A7E5" rx="11" ry="11" style="stroke: #A80036; stroke-width: 1.0;"/><path d="M17.1719,233.4219 L24.7344,233.4219 L24.7344,235.5156 L22.1406,235.5156 L22.1406,244.4063 L24.7344,244.4063 L24.7344,246.5 L17.1719,246.5 L17.1719,244.4063 L19.7656,244.4063 L19.7656,235.5156 L17.1719,235.5156 L17.1719,233.4219 Z "/><text fill="#000000" font-family="sans-serif" font-size="12" font-style="italic" lengthAdjust="spacingAndGlyphs" textLength="21" x="35" y="244.1543">List</text><rect fill="#FFFFFF" height="15.9688" style="stroke: #000000; stroke-width: 1.0; stroke-dasharray: 2.0,2.0;" width="9" x="64" y="221"/><text fill="#000000" font-family="sans-serif" font-size="12" font-style="italic" lengthAdjust="spacingAndGlyphs" textLength="7" x="65" y="233.1387">T</text><line style="stroke: #A80036; stroke-width: 1.5;" x1="7" x2="69" y1="256" y2="256"/><line style="stroke: #A80036; stroke-width: 1.5;" x1="7" x2="69" y1="264" y2="264"/><!--class Set--><rect fill="#FEFECE" filter="url(#f17bmnrjmcyori)" height="48" id="Set" style="stroke: #A80036; stroke-width: 1.5;" width="64" x="105" y="224"/><ellipse cx="120" cy="240" fill="#B4A7E5" rx="11" ry="11" style="stroke: #A80036; stroke-width: 1.0;"/><path d="M116.1719,233.4219 L123.7344,233.4219 L123.7344,235.5156 L121.1406,235.5156 L121.1406,244.4063 L123.7344,244.4063 L123.7344,246.5 L116.1719,246.5 L116.1719,244.4063 L118.7656,244.4063 L118.7656,235.5156 L116.1719,235.5156 L116.1719,233.4219 Z "/><text fill="#000000" font-family="sans-serif" font-size="12" font-style="italic" lengthAdjust="spacingAndGlyphs" textLength="21" x="134" y="244.1543">Set</text><rect fill="#FFFFFF" height="15.9688" style="stroke: #000000; stroke-width: 1.0; stroke-dasharray: 2.0,2.0;" width="9" x="163" y="221"/><text fill="#000000" font-family="sans-serif" font-size="12" font-style="italic" lengthAdjust="spacingAndGlyphs" textLength="7" x="164" y="233.1387">T</text><line style="stroke: #A80036; stroke-width: 1.5;" x1="106" x2="168" y1="256" y2="256"/><line style="stroke: #A80036; stroke-width: 1.5;" x1="106" x2="168" y1="264" y2="264"/><!--class SortedSet--><rect fill="#FEFECE" filter="url(#f17bmnrjmcyori)" height="48" id="SortedSet" style="stroke: #A80036; stroke-width: 1.5;" width="106" x="76" y="332"/><ellipse cx="91" cy="348" fill="#B4A7E5" rx="11" ry="11" style="stroke: #A80036; stroke-width: 1.0;"/><path d="M87.1719,341.4219 L94.7344,341.4219 L94.7344,343.5156 L92.1406,343.5156 L92.1406,352.4063 L94.7344,352.4063 L94.7344,354.5 L87.1719,354.5 L87.1719,352.4063 L89.7656,352.4063 L89.7656,343.5156 L87.1719,343.5156 L87.1719,341.4219 Z "/><text fill="#000000" font-family="sans-serif" font-size="12" font-style="italic" lengthAdjust="spacingAndGlyphs" textLength="63" x="105" y="352.1543">SortedSet</text><rect fill="#FFFFFF" height="15.9688" style="stroke: #000000; stroke-width: 1.0; stroke-dasharray: 2.0,2.0;" width="9" x="176" y="329"/><text fill="#000000" font-family="sans-serif" font-size="12" font-style="italic" lengthAdjust="spacingAndGlyphs" textLength="7" x="177" y="341.1387">T</text><line style="stroke: #A80036; stroke-width: 1.5;" x1="77" x2="181" y1="364" y2="364"/><line style="stroke: #A80036; stroke-width: 1.5;" x1="77" x2="181" y1="372" y2="372"/><!--class NavigableSet--><rect fill="#FEFECE" filter="url(#f17bmnrjmcyori)" height="48" id="NavigableSet" style="stroke: #A80036; stroke-width: 1.5;" width="125" x="66.5" y="440"/><ellipse cx="81.5" cy="456" fill="#B4A7E5" rx="11" ry="11" style="stroke: #A80036; stroke-width: 1.0;"/><path d="M77.6719,449.4219 L85.2344,449.4219 L85.2344,451.5156 L82.6406,451.5156 L82.6406,460.4063 L85.2344,460.4063 L85.2344,462.5 L77.6719,462.5 L77.6719,460.4063 L80.2656,460.4063 L80.2656,451.5156 L77.6719,451.5156 L77.6719,449.4219 Z "/><text fill="#000000" font-family="sans-serif" font-size="12" font-style="italic" lengthAdjust="spacingAndGlyphs" textLength="82" x="95.5" y="460.1543">NavigableSet</text><rect fill="#FFFFFF" height="15.9688" style="stroke: #000000; stroke-width: 1.0; stroke-dasharray: 2.0,2.0;" width="9" x="185.5" y="437"/><text fill="#000000" font-family="sans-serif" font-size="12" font-style="italic" lengthAdjust="spacingAndGlyphs" textLength="7" x="186.5" y="449.1387">T</text><line style="stroke: #A80036; stroke-width: 1.5;" x1="67.5" x2="190.5" y1="472" y2="472"/><line style="stroke: #A80036; stroke-width: 1.5;" x1="67.5" x2="190.5" y1="480" y2="480"/><!--class Queue--><rect fill="#FEFECE" filter="url(#f17bmnrjmcyori)" height="48" id="Queue" style="stroke: #A80036; stroke-width: 1.5;" width="83" x="218.5" y="224"/><ellipse cx="233.5" cy="240" fill="#B4A7E5" rx="11" ry="11" style="stroke: #A80036; stroke-width: 1.0;"/><path d="M229.6719,233.4219 L237.2344,233.4219 L237.2344,235.5156 L234.6406,235.5156 L234.6406,244.4063 L237.2344,244.4063 L237.2344,246.5 L229.6719,246.5 L229.6719,244.4063 L232.2656,244.4063 L232.2656,235.5156 L229.6719,235.5156 L229.6719,233.4219 Z "/><text fill="#000000" font-family="sans-serif" font-size="12" font-style="italic" lengthAdjust="spacingAndGlyphs" textLength="40" x="247.5" y="244.1543">Queue</text><rect fill="#FFFFFF" height="15.9688" style="stroke: #000000; stroke-width: 1.0; stroke-dasharray: 2.0,2.0;" width="9" x="295.5" y="221"/><text fill="#000000" font-family="sans-serif" font-size="12" font-style="italic" lengthAdjust="spacingAndGlyphs" textLength="7" x="296.5" y="233.1387">T</text><line style="stroke: #A80036; stroke-width: 1.5;" x1="219.5" x2="300.5" y1="256" y2="256"/><line style="stroke: #A80036; stroke-width: 1.5;" x1="219.5" x2="300.5" y1="264" y2="264"/><!--class DeQueue--><rect fill="#FEFECE" filter="url(#f17bmnrjmcyori)" height="48" id="DeQueue" style="stroke: #A80036; stroke-width: 1.5;" width="100" x="217" y="332"/><ellipse cx="232" cy="348" fill="#B4A7E5" rx="11" ry="11" style="stroke: #A80036; stroke-width: 1.0;"/><path d="M228.1719,341.4219 L235.7344,341.4219 L235.7344,343.5156 L233.1406,343.5156 L233.1406,352.4063 L235.7344,352.4063 L235.7344,354.5 L228.1719,354.5 L228.1719,352.4063 L230.7656,352.4063 L230.7656,343.5156 L228.1719,343.5156 L228.1719,341.4219 Z "/><text fill="#000000" font-family="sans-serif" font-size="12" font-style="italic" lengthAdjust="spacingAndGlyphs" textLength="57" x="246" y="352.1543">DeQueue</text><rect fill="#FFFFFF" height="15.9688" style="stroke: #000000; stroke-width: 1.0; stroke-dasharray: 2.0,2.0;" width="9" x="311" y="329"/><text fill="#000000" font-family="sans-serif" font-size="12" font-style="italic" lengthAdjust="spacingAndGlyphs" textLength="7" x="312" y="341.1387">T</text><line style="stroke: #A80036; stroke-width: 1.5;" x1="218" x2="316" y1="364" y2="364"/><line style="stroke: #A80036; stroke-width: 1.5;" x1="218" x2="316" y1="372" y2="372"/><!--link Iterable to Collection--><path d="M137,76.2911 C137,89.8171 137,104.1835 137,115.8436 " fill="none" id="Iterable-Collection" style="stroke: #A80036; stroke-width: 1.0;"/><polygon fill="none" points="130.0001,76.2373,137,56.2373,144.0001,76.2373,130.0001,76.2373" style="stroke: #A80036; stroke-width: 1.0;"/><!--link Collection to List--><path d="M101.2239,179.0285 C87.4926,194.0081 72.2314,210.6566 60.1434,223.8436 " fill="none" id="Collection-List" style="stroke: #A80036; stroke-width: 1.0;"/><polygon fill="none" points="96.1079,174.2503,114.7825,164.2373,106.428,183.7105,96.1079,174.2503" style="stroke: #A80036; stroke-width: 1.0;"/><!--link Collection to Set--><path d="M137,184.2911 C137,197.8171 137,212.1835 137,223.8436 " fill="none" id="Collection-Set" style="stroke: #A80036; stroke-width: 1.0;"/><polygon fill="none" points="130.0001,184.2373,137,164.2373,144.0001,184.2373,130.0001,184.2373" style="stroke: #A80036; stroke-width: 1.0;"/><!--link Collection to Queue--><path d="M179.8387,177.6145 C197.3077,192.9531 216.9958,210.2402 232.4885,223.8436 " fill="none" id="Collection-Queue" style="stroke: #A80036; stroke-width: 1.0;"/><polygon fill="none" points="175.0138,182.6935,164.6036,164.2373,184.251,172.1733,175.0138,182.6935" style="stroke: #A80036; stroke-width: 1.0;"/><!--link Set to SortedSet--><path d="M133.7192,292.2911 C132.7173,305.8171 131.6531,320.1835 130.7894,331.8436 " fill="none" id="Set-SortedSet" style="stroke: #A80036; stroke-width: 1.0;"/><polygon fill="none" points="126.7462,291.6655,135.2046,272.2373,140.708,292.6998,126.7462,291.6655" style="stroke: #A80036; stroke-width: 1.0;"/><!--link SortedSet to NavigableSet--><path d="M129,400.2911 C129,413.8171 129,428.1835 129,439.8436 " fill="none" id="SortedSet-NavigableSet" style="stroke: #A80036; stroke-width: 1.0;"/><polygon fill="none" points="122.0001,400.2373,129,380.2373,136.0001,400.2373,122.0001,400.2373" style="stroke: #A80036; stroke-width: 1.0;"/><!--link Queue to DeQueue--><path d="M262.8707,292.2911 C263.7474,305.8171 264.6786,320.1835 265.4343,331.8436 " fill="none" id="Queue-DeQueue" style="stroke: #A80036; stroke-width: 1.0;"/><polygon fill="none" points="255.8793,292.6482,261.5709,272.2373,269.85,291.7426,255.8793,292.6482" style="stroke: #A80036; stroke-width: 1.0;"/><!--
@startuml
interface Iterable<T>
interface Collection<T>
interface List<T>
interface Set<T>
interface SortedSet<T>
interface NavigableSet<T>
interface Queue<T>
interface DeQueue<T>

Iterable <|- - Collection
Collection <|- - List
Collection <|- - Set
Collection <|- - Queue
Set <|- - SortedSet
SortedSet <|- - NavigableSet
Queue <|- - DeQueue
@enduml

PlantUML version 1.2018.10(Sat Aug 25 19:02:59 CEST 2018)
(APACHE source distribution)
Java Runtime: OpenJDK Runtime Environment
JVM: OpenJDK 64-Bit Server VM
Java Version: 10.0.1+10-Debian-4
Operating System: Linux
OS Version: 4.16.0-1-amd64
Default Encoding: UTF-8
Language: fr
Country: FR
--></g></svg>