<?xml version="1.0" encoding="UTF-8" standalone="no"?><svg xmlns="http://www.w3.org/2000/svg" xmlns:xlink="http://www.w3.org/1999/xlink" contentScriptType="application/ecmascript" contentStyleType="text/css" height="283px" preserveAspectRatio="none" style="width:150px;height:283px;" version="1.1" viewBox="0 0 150 283" width="150px" zoomAndPan="magnify"><defs><filter height="300%" id="fxq8xumq0s4y6" width="300%" x="-1" y="-1"><feGaussianBlur result="blurOut" stdDeviation="2.0"/><feColorMatrix in="blurOut" result="blurOut2" type="matrix" values="0 0 0 0 0 0 0 0 0 0 0 0 0 0 0 0 0 0 .4 0"/><feOffset dx="4.0" dy="4.0" in="blurOut2" result="blurOut3"/><feBlend in="SourceGraphic" in2="blurOut3" mode="normal"/></filter></defs><g><!--class Map--><rect fill="#FEFECE" filter="url(#fxq8xumq0s4y6)" height="48" id="Map" style="stroke: #A80036; stroke-width: 1.5;" width="69" x="36.5" y="8"/><ellipse cx="51.5" cy="24" fill="#B4A7E5" rx="11" ry="11" style="stroke: #A80036; stroke-width: 1.0;"/><path d="M47.6719,17.4219 L55.2344,17.4219 L55.2344,19.5156 L52.6406,19.5156 L52.6406,28.4063 L55.2344,28.4063 L55.2344,30.5 L47.6719,30.5 L47.6719,28.4063 L50.2656,28.4063 L50.2656,19.5156 L47.6719,19.5156 L47.6719,17.4219 Z "/><text fill="#000000" font-family="sans-serif" font-size="12" font-style="italic" lengthAdjust="spacingAndGlyphs" textLength="26" x="65.5" y="28.1543">Map</text><rect fill="#FFFFFF" height="15.9688" style="stroke: #000000; stroke-width: 1.0; stroke-dasharray: 2.0,2.0;" width="9" x="99.5" y="5"/><text fill="#000000" font-family="sans-serif" font-size="12" font-style="italic" lengthAdjust="spacingAndGlyphs" textLength="7" x="100.5" y="17.1387">T</text><line style="stroke: #A80036; stroke-width: 1.5;" x1="37.5" x2="104.5" y1="40" y2="40"/><line style="stroke: #A80036; stroke-width: 1.5;" x1="37.5" x2="104.5" y1="48" y2="48"/><!--class SortedMap--><rect fill="#FEFECE" filter="url(#fxq8xumq0s4y6)" height="48" id="SortedMap" style="stroke: #A80036; stroke-width: 1.5;" width="111" x="15.5" y="116"/><ellipse cx="30.5" cy="132" fill="#B4A7E5" rx="11" ry="11" style="stroke: #A80036; stroke-width: 1.0;"/><path d="M26.6719,125.4219 L34.2344,125.4219 L34.2344,127.5156 L31.6406,127.5156 L31.6406,136.4063 L34.2344,136.4063 L34.2344,138.5 L26.6719,138.5 L26.6719,136.4063 L29.2656,136.4063 L29.2656,127.5156 L26.6719,127.5156 L26.6719,125.4219 Z "/><text fill="#000000" font-family="sans-serif" font-size="12" font-style="italic" lengthAdjust="spacingAndGlyphs" textLength="68" x="44.5" y="136.1543">SortedMap</text><rect fill="#FFFFFF" height="15.9688" style="stroke: #000000; stroke-width: 1.0; stroke-dasharray: 2.0,2.0;" width="9" x="120.5" y="113"/><text fill="#000000" font-family="sans-serif" font-size="12" font-style="italic" lengthAdjust="spacingAndGlyphs" textLength="7" x="121.5" y="125.1387">T</text><line style="stroke: #A80036; stroke-width: 1.5;" x1="16.5" x2="125.5" y1="148" y2="148"/><line style="stroke: #A80036; stroke-width: 1.5;" x1="16.5" x2="125.5" y1="156" y2="156"/><!--class NavigableMap--><rect fill="#FEFECE" filter="url(#fxq8xumq0s4y6)" height="48" id="NavigableMap" style="stroke: #A80036; stroke-width: 1.5;" width="130" x="6" y="224"/><ellipse cx="21" cy="240" fill="#B4A7E5" rx="11" ry="11" style="stroke: #A80036; stroke-width: 1.0;"/><path d="M17.1719,233.4219 L24.7344,233.4219 L24.7344,235.5156 L22.1406,235.5156 L22.1406,244.4063 L24.7344,244.4063 L24.7344,246.5 L17.1719,246.5 L17.1719,244.4063 L19.7656,244.4063 L19.7656,235.5156 L17.1719,235.5156 L17.1719,233.4219 Z "/><text fill="#000000" font-family="sans-serif" font-size="12" font-style="italic" lengthAdjust="spacingAndGlyphs" textLength="87" x="35" y="244.1543">NavigableMap</text><rect fill="#FFFFFF" height="15.9688" style="stroke: #000000; stroke-width: 1.0; stroke-dasharray: 2.0,2.0;" width="9" x="130" y="221"/><text fill="#000000" font-family="sans-serif" font-size="12" font-style="italic" lengthAdjust="spacingAndGlyphs" textLength="7" x="131" y="233.1387">T</text><line style="stroke: #A80036; stroke-width: 1.5;" x1="7" x2="135" y1="256" y2="256"/><line style="stroke: #A80036; stroke-width: 1.5;" x1="7" x2="135" y1="264" y2="264"/><!--link Map to SortedMap--><path d="M71,76.2911 C71,89.8171 71,104.1835 71,115.8436 " fill="none" id="Map-SortedMap" style="stroke: #A80036; stroke-width: 1.0;"/><polygon fill="none" points="64.0001,76.2373,71,56.2373,78.0001,76.2373,64.0001,76.2373" style="stroke: #A80036; stroke-width: 1.0;"/><!--link SortedMap to NavigableMap--><path d="M71,184.2911 C71,197.8171 71,212.1835 71,223.8436 " fill="none" id="SortedMap-NavigableMap" style="stroke: #A80036; stroke-width: 1.0;"/><polygon fill="none" points="64.0001,184.2373,71,164.2373,78.0001,184.2373,64.0001,184.2373" style="stroke: #A80036; stroke-width: 1.0;"/><!--
@startuml
interface Map<T>
interface SortedMap<T>
interface NavigableMap<T>

Map <|- - SortedMap
SortedMap <|- - NavigableMap
@enduml

PlantUML version 1.2018.10(Sat Aug 25 19:02:59 CEST 2018)
(APACHE source distribution)
Java Runtime: OpenJDK Runtime Environment
JVM: OpenJDK 64-Bit Server VM
Java Version: 10.0.1+10-Debian-4
Operating System: Linux
OS Version: 4.16.0-1-amd64
Default Encoding: UTF-8
Language: fr
Country: FR
--></g></svg>